<svg width="134" height="169" viewBox="0 0 134 169" fill="none" xmlns="http://www.w3.org/2000/svg">
<path fill-rule="evenodd" clip-rule="evenodd" d="M100.594 5.65128L74.9307 20.6035L102.726 27.9339L110.827 23.2143C111.781 22.6582 112.104 21.4337 111.548 20.4793L103.329 6.37258C102.773 5.41813 101.549 5.0952 100.594 5.65128ZM47.4986 36.5862L69.228 23.9261L97.0237 31.2564L75.2943 43.9165L47.4986 36.5862ZM41.7959 39.9087L20.0657 52.5693L47.8614 59.8997L69.5916 47.239L41.7959 39.9087ZM5.85363 60.8496L14.363 55.8918L42.1587 63.2222L16.0863 78.4126C15.1318 78.9687 13.9073 78.6458 13.3512 77.6913L5.13233 63.5846C4.57624 62.6302 4.89918 61.4057 5.85363 60.8496ZM3.50424 56.8172C0.322752 58.6708 -0.753705 62.7525 1.09991 65.934L9.31882 80.0407C11.1724 83.2222 15.2542 84.2986 18.4357 82.445L113.176 27.2467C116.358 25.3931 117.434 21.3113 115.581 18.1299L107.362 4.02319C105.508 0.841711 101.426 -0.234752 98.2449 1.61887L3.50424 56.8172ZM15.6753 93.5284L126.348 93.5284C127.452 93.5284 128.348 94.4238 128.348 95.5285L128.348 142.198C128.348 154.348 118.497 164.199 106.347 164.199L35.6763 164.199C23.5254 164.199 13.6752 154.348 13.6752 142.198L13.6752 95.5285C13.6752 94.4238 14.5706 93.5284 15.6753 93.5284ZM9.00827 95.5285C9.00827 91.8464 11.9932 88.8615 15.6753 88.8615L126.348 88.8615C130.03 88.8615 133.015 91.8464 133.015 95.5285L133.015 142.198C133.015 156.926 121.075 168.866 106.347 168.866L35.6763 168.866C20.948 168.866 9.00827 156.926 9.00827 142.198L9.00827 95.5285ZM53.0114 121.197C51.7227 121.197 50.678 122.241 50.678 123.53C50.678 124.819 51.7227 125.863 53.0114 125.863L90.3467 125.863C91.6354 125.863 92.6801 124.819 92.6801 123.53C92.6801 122.241 91.6354 121.197 90.3467 121.197L53.0114 121.197ZM50.678 135.531C50.678 134.242 51.7227 133.197 53.0114 133.197L90.3467 133.197C91.6354 133.197 92.6801 134.242 92.6801 135.531C92.6801 136.819 91.6354 137.864 90.3467 137.864L53.0114 137.864C51.7227 137.864 50.678 136.819 50.678 135.531Z" fill="#D9D9D9"/>
<path fill-rule="evenodd" clip-rule="evenodd" d="M100.594 5.65128L74.9307 20.6035L102.726 27.9339L110.827 23.2143C111.781 22.6582 112.104 21.4337 111.548 20.4793L103.329 6.37258C102.773 5.41813 101.549 5.0952 100.594 5.65128ZM47.4986 36.5862L69.228 23.9261L97.0237 31.2564L75.2943 43.9165L47.4986 36.5862ZM41.7959 39.9087L20.0657 52.5693L47.8614 59.8997L69.5916 47.239L41.7959 39.9087ZM5.85363 60.8496L14.363 55.8918L42.1587 63.2222L16.0863 78.4126C15.1318 78.9687 13.9073 78.6458 13.3512 77.6913L5.13233 63.5846C4.57624 62.6302 4.89918 61.4057 5.85363 60.8496ZM3.50424 56.8172C0.322752 58.6708 -0.753705 62.7525 1.09991 65.934L9.31882 80.0407C11.1724 83.2222 15.2542 84.2986 18.4357 82.445L113.176 27.2467C116.358 25.3931 117.434 21.3113 115.581 18.1299L107.362 4.02319C105.508 0.841711 101.426 -0.234752 98.2449 1.61887L3.50424 56.8172ZM15.6753 93.5284L126.348 93.5284C127.452 93.5284 128.348 94.4238 128.348 95.5285L128.348 142.198C128.348 154.348 118.497 164.199 106.347 164.199L35.6763 164.199C23.5254 164.199 13.6752 154.348 13.6752 142.198L13.6752 95.5285C13.6752 94.4238 14.5706 93.5284 15.6753 93.5284ZM9.00827 95.5285C9.00827 91.8464 11.9932 88.8615 15.6753 88.8615L126.348 88.8615C130.03 88.8615 133.015 91.8464 133.015 95.5285L133.015 142.198C133.015 156.926 121.075 168.866 106.347 168.866L35.6763 168.866C20.948 168.866 9.00827 156.926 9.00827 142.198L9.00827 95.5285ZM53.0114 121.197C51.7227 121.197 50.678 122.241 50.678 123.53C50.678 124.819 51.7227 125.863 53.0114 125.863L90.3467 125.863C91.6354 125.863 92.6801 124.819 92.6801 123.53C92.6801 122.241 91.6354 121.197 90.3467 121.197L53.0114 121.197ZM50.678 135.531C50.678 134.242 51.7227 133.197 53.0114 133.197L90.3467 133.197C91.6354 133.197 92.6801 134.242 92.6801 135.531C92.6801 136.819 91.6354 137.864 90.3467 137.864L53.0114 137.864C51.7227 137.864 50.678 136.819 50.678 135.531Z" fill="url(#paint0_linear_6_4114)"/>
<defs>
<linearGradient id="paint0_linear_6_4114" x1="-47.5788" y1="74.0883" x2="192.335" y2="78.8416" gradientUnits="userSpaceOnUse">
<stop stop-color="#A2BDB2"/>
<stop offset="1" stop-color="#667770"/>
</linearGradient>
</defs>
</svg>
