<svg width="138" height="170" viewBox="0 0 138 170" fill="none" xmlns="http://www.w3.org/2000/svg">
<path d="M130.149 41.1984C128.516 41.0327 126.872 41.3698 125.436 42.1643C124.735 39.89 123.048 38.0514 120.843 37.1568C118.638 36.2622 116.147 36.4065 114.06 37.5497C112.898 33.9511 109.378 31.6552 105.616 32.0424C103.168 32.3207 100.988 33.7194 99.7152 35.8284C97.8122 34.4197 95.3754 33.9441 93.0824 34.5339C90.7894 35.1237 88.8845 36.716 87.8974 38.8682H65.356C64.9384 38.8651 64.5294 38.7488 64.1727 38.5317L54.9185 32.9947C53.8546 32.3517 52.6366 32.0084 51.3936 32.0012H17.4968C13.3082 31.9451 9.74143 35.0348 9.19945 39.1887C9.03407 40.8221 9.37105 42.4671 10.1654 43.904C7.89047 44.6041 6.05124 46.2906 5.15693 48.4964C4.26263 50.7023 4.40814 53.1935 5.55319 55.2802C1.94912 56.4382 -0.349994 59.9638 0.0437345 63.7289C0.32097 66.177 1.71985 68.3574 3.82962 69.6299C2.66808 71.2319 2.13536 73.2048 2.33266 75.1738C2.65968 77.9106 4.37443 80.2855 6.86932 81.4571V103.99C6.86532 104.405 6.74821 104.812 6.53056 105.166L0.945573 114.469C0.33775 115.529 0.0129926 116.728 0.00253375 117.95V151.848C-0.050192 156.036 3.0393 159.6 7.19206 160.143C8.82452 160.304 10.4675 159.968 11.905 159.177C12.6057 161.452 14.2925 163.292 16.4987 164.186C18.7048 165.08 21.1962 164.935 23.2832 163.79C24.3437 167.102 27.4255 169.347 30.9031 169.34C33.6625 169.341 36.218 167.887 37.628 165.515C39.5328 166.924 41.971 167.399 44.2654 166.809C46.5598 166.219 48.4661 164.626 49.4549 162.473H71.9848C72.4024 162.476 72.8114 162.593 73.1682 162.81L82.4223 168.352C83.4869 168.992 84.7048 169.333 85.9473 169.338H119.844C124.033 169.394 127.599 166.305 128.141 162.151C128.306 160.518 127.969 158.874 127.175 157.438C129.45 156.737 131.29 155.051 132.184 152.845C133.078 150.639 132.933 148.148 131.788 146.061C135.39 144.904 137.689 141.381 137.297 137.617C137.02 135.169 135.621 132.989 133.511 131.716C134.673 130.114 135.205 128.141 135.008 126.172C134.679 123.439 132.964 121.068 130.472 119.898V97.3518C130.476 96.9351 130.593 96.5273 130.808 96.1706L136.352 86.9186C136.992 85.8531 137.333 84.6344 137.338 83.3912V49.4937C137.391 45.3058 134.302 41.7412 130.149 41.1984ZM4.5987 63.2756C4.49266 62.3055 4.80445 61.3361 5.45616 60.6097C6.10786 59.8832 7.03789 59.4685 8.01379 59.4691H22.8918C24.156 59.4691 25.1808 58.4442 25.1808 57.1801C25.1808 55.9159 24.156 54.8911 22.8918 54.8911H12.5916C11.6159 54.8934 10.6852 54.4804 10.0322 53.7553C9.37925 53.0303 9.06561 52.0616 9.1697 51.0914C9.4626 49.2671 11.0729 47.9498 12.919 48.0241H27.4697C28.7338 48.0241 29.7586 46.9993 29.7586 45.7352C29.7586 44.471 28.7338 43.4462 27.4697 43.4462H17.1695C16.1937 43.4485 15.2631 43.0355 14.6101 42.3104C13.9571 41.5853 13.6435 40.6167 13.7476 39.6465C14.0395 37.8217 15.6504 36.5038 17.4968 36.5792H51.3936C51.8108 36.5824 52.2192 36.6995 52.5747 36.918L61.8311 42.4619C62.8964 43.1006 64.114 43.4406 65.356 43.4462H86.9819V63.793L83.0174 60.5472C80.0425 58.2765 75.858 58.5065 73.1499 61.0897C71.139 63.0398 70.4401 65.9783 71.3576 68.625H63.6828C61.8814 68.6326 60.1551 69.3478 58.8761 70.6164L37.335 91.9818L37.2892 92.0276L36.337 92.9706C35.2205 94.0622 33.4328 94.05 32.3314 92.9432C31.326 91.9338 31.228 90.3344 32.1025 89.2098L38.397 81.5189C38.9568 80.8343 39.0721 79.8886 38.6934 79.0896C38.3147 78.2905 37.5096 77.7811 36.6254 77.7809H10.63C8.78692 77.8529 7.18033 76.5372 6.88763 74.716C6.78298 73.7466 7.09541 72.7784 7.74696 72.0531C8.3985 71.3277 9.32771 70.9136 10.3027 70.914H22.8918C24.156 70.914 25.1808 69.8892 25.1808 68.625C25.1808 67.3608 24.156 66.336 22.8918 66.336H8.3411C6.49983 66.4073 4.89441 65.0945 4.5987 63.2756ZM96.1376 106.753L75.2396 127.477C74.8193 127.897 74.25 128.134 73.6557 128.136H62.5864L41.8648 107.247C41.4435 106.826 41.2057 106.256 41.2033 105.661V94.5821L62.0943 73.8645C62.5154 73.4424 63.0867 73.2045 63.6828 73.203H74.7613L95.4829 94.0922C95.901 94.5154 96.1361 95.0859 96.1376 95.6808V106.753ZM42.6956 162.455C41.7319 162.559 40.7697 162.246 40.0519 161.594C39.3308 160.94 38.9179 160.013 38.9143 159.04V159.006V146.45C38.9143 145.186 37.8895 144.162 36.6254 144.162C35.3613 144.162 34.3365 145.186 34.3365 146.45V159.04V159.072V161.006C34.3993 162.856 33.0724 164.462 31.2441 164.749C30.2824 164.853 29.3221 164.54 28.6073 163.888C27.8845 163.233 27.4714 162.304 27.4697 161.329V156.751V156.705V146.45C27.4697 145.186 26.4449 144.162 25.1808 144.162C23.9166 144.162 22.8918 145.186 22.8918 146.45V156.751V156.778C22.8857 157.749 22.4691 158.672 21.7451 159.318C21.021 159.964 20.0573 160.274 19.0922 160.171C17.2684 159.879 15.9508 158.269 16.025 156.424V152.173V152.139V141.873C16.025 140.608 15.0003 139.584 13.7361 139.584C12.472 139.584 11.4472 140.608 11.4472 141.873V152.173V152.194C11.4429 153.165 11.0275 154.089 10.3037 154.737C9.57999 155.385 8.61571 155.696 7.64985 155.593C5.82653 155.301 4.50856 153.693 4.58039 151.848V117.95C4.58392 117.538 4.6918 117.133 4.89398 116.774L10.4629 107.513C11.1003 106.448 11.4402 105.231 11.4472 103.99V82.3589H31.7912L28.5432 86.3257C26.4492 88.8727 26.3003 92.5003 28.1784 95.2104C30.0566 97.9205 33.5054 99.0546 36.6254 97.9881V105.661C36.633 107.462 37.3482 109.189 38.6168 110.468L59.9633 131.984C59.9885 132.012 60.0137 132.037 60.0412 132.062L60.9727 133C61.7748 133.817 62.008 135.035 61.5644 136.09C61.1207 137.145 60.0869 137.83 58.9425 137.828C58.3196 137.831 57.7142 137.622 57.2258 137.235L49.5373 130.943C48.8529 130.371 47.8988 130.249 47.0925 130.63C46.2862 131.01 45.7744 131.825 45.7811 132.717V158.713C45.8445 160.56 44.5212 162.165 42.6956 162.455ZM132.742 138.066C132.848 139.036 132.536 140.006 131.885 140.732C131.233 141.458 130.303 141.873 129.327 141.873H114.449C113.185 141.873 112.16 142.897 112.16 144.162C112.16 145.426 113.185 146.45 114.449 146.45H124.749C125.725 146.448 126.656 146.861 127.309 147.586C127.962 148.311 128.275 149.28 128.171 150.25C127.878 152.074 126.268 153.392 124.422 153.317H109.871C108.607 153.317 107.582 154.342 107.582 155.606C107.582 156.871 108.607 157.895 109.871 157.895H120.171C121.147 157.893 122.078 158.306 122.731 159.031C123.384 159.756 123.697 160.725 123.593 161.695C123.301 163.52 121.69 164.838 119.844 164.762H85.9473C85.53 164.759 85.1216 164.642 84.7662 164.424L75.5097 158.88C74.4445 158.241 73.2268 157.901 71.9848 157.895H50.359V137.544L54.3234 140.79C57.2956 143.069 61.4865 142.839 64.191 140.247C66.2024 138.3 66.9039 135.363 65.9901 132.717H73.658C75.4594 132.709 77.1857 131.994 78.4647 130.725L99.999 109.369L100.079 109.291L101.011 108.376C102.127 107.284 103.915 107.296 105.016 108.403C106.022 109.412 106.12 111.012 105.245 112.136L98.9507 119.827C98.3946 120.511 98.2804 121.453 98.657 122.25C99.0336 123.047 99.8342 123.556 100.715 123.561H126.711C128.554 123.489 130.161 124.804 130.453 126.626C130.558 127.595 130.245 128.563 129.594 129.289C128.942 130.014 128.013 130.428 127.038 130.428H114.449C113.185 130.428 112.16 131.452 112.16 132.717C112.16 133.981 113.185 135.006 114.449 135.006H129.007C130.845 134.938 132.447 136.25 132.742 138.066ZM132.76 83.3912C132.757 83.8081 132.641 84.2162 132.424 84.5724L126.878 93.829C126.239 94.8936 125.899 96.1104 125.894 97.3518V118.983H105.543L108.791 115.016C111.148 112.069 110.913 107.821 108.244 105.153C106.244 103.234 103.353 102.568 100.715 103.418V95.6808C100.708 93.8793 99.9927 92.153 98.7241 90.8739L77.3683 69.3254L77.3249 69.2819L76.3795 68.3297C75.8432 67.8 75.5437 67.076 75.5489 66.3222C75.554 65.5684 75.8635 64.8486 76.407 64.3263C77.4302 63.3501 79.0079 63.2535 80.1425 64.0974L87.831 70.3898C88.5148 70.9431 89.4551 71.0556 90.25 70.6793C91.045 70.3031 91.5541 69.5045 91.5597 68.625V42.629C91.4889 40.7854 92.8054 39.1791 94.6269 38.8865C95.5959 38.7826 96.5634 39.0953 97.2882 39.7468C98.013 40.3983 98.4269 41.3271 98.4265 42.3017V54.8911C98.4265 56.1553 99.4513 57.1801 100.715 57.1801C101.98 57.1801 103.004 56.1553 103.004 54.8911V40.34C102.933 38.4961 104.249 36.8892 106.072 36.5975C107.041 36.4936 108.008 36.8063 108.733 37.4578C109.458 38.1093 109.872 39.0381 109.871 40.0127V54.8911C109.871 56.1553 110.896 57.1801 112.16 57.1801C113.424 57.1801 114.449 56.1553 114.449 54.8911V44.5907C114.447 43.6153 114.861 42.6852 115.586 42.0327C116.311 41.3802 117.279 41.0669 118.249 41.1709C120.072 41.4628 121.39 43.0724 121.316 44.918V59.4691C121.316 60.7332 122.341 61.758 123.605 61.758C124.869 61.758 125.894 60.7332 125.894 59.4691V49.1686C125.892 48.1932 126.305 47.2632 127.03 46.6107C127.755 45.9582 128.723 45.6448 129.693 45.7489C131.516 46.0416 132.832 47.6493 132.76 49.4937V83.3912Z" fill="black"/>
<path d="M130.149 41.1984C128.516 41.0327 126.872 41.3698 125.436 42.1643C124.735 39.89 123.048 38.0514 120.843 37.1568C118.638 36.2622 116.147 36.4065 114.06 37.5497C112.898 33.9511 109.378 31.6552 105.616 32.0424C103.168 32.3207 100.988 33.7194 99.7152 35.8284C97.8122 34.4197 95.3754 33.9441 93.0824 34.5339C90.7894 35.1237 88.8845 36.716 87.8974 38.8682H65.356C64.9384 38.8651 64.5294 38.7488 64.1727 38.5317L54.9185 32.9947C53.8546 32.3517 52.6366 32.0084 51.3936 32.0012H17.4968C13.3082 31.9451 9.74143 35.0348 9.19945 39.1887C9.03407 40.8221 9.37105 42.4671 10.1654 43.904C7.89047 44.6041 6.05124 46.2906 5.15693 48.4964C4.26263 50.7023 4.40814 53.1935 5.55319 55.2802C1.94912 56.4382 -0.349994 59.9638 0.0437345 63.7289C0.32097 66.177 1.71985 68.3574 3.82962 69.6299C2.66808 71.2319 2.13536 73.2048 2.33266 75.1738C2.65968 77.9106 4.37443 80.2855 6.86932 81.4571V103.99C6.86532 104.405 6.74821 104.812 6.53056 105.166L0.945573 114.469C0.33775 115.529 0.0129926 116.728 0.00253375 117.95V151.848C-0.050192 156.036 3.0393 159.6 7.19206 160.143C8.82452 160.304 10.4675 159.968 11.905 159.177C12.6057 161.452 14.2925 163.292 16.4987 164.186C18.7048 165.08 21.1962 164.935 23.2832 163.79C24.3437 167.102 27.4255 169.347 30.9031 169.34C33.6625 169.341 36.218 167.887 37.628 165.515C39.5328 166.924 41.971 167.399 44.2654 166.809C46.5598 166.219 48.4661 164.626 49.4549 162.473H71.9848C72.4024 162.476 72.8114 162.593 73.1682 162.81L82.4223 168.352C83.4869 168.992 84.7048 169.333 85.9473 169.338H119.844C124.033 169.394 127.599 166.305 128.141 162.151C128.306 160.518 127.969 158.874 127.175 157.438C129.45 156.737 131.29 155.051 132.184 152.845C133.078 150.639 132.933 148.148 131.788 146.061C135.39 144.904 137.689 141.381 137.297 137.617C137.02 135.169 135.621 132.989 133.511 131.716C134.673 130.114 135.205 128.141 135.008 126.172C134.679 123.439 132.964 121.068 130.472 119.898V97.3518C130.476 96.9351 130.593 96.5273 130.808 96.1706L136.352 86.9186C136.992 85.8531 137.333 84.6344 137.338 83.3912V49.4937C137.391 45.3058 134.302 41.7412 130.149 41.1984ZM4.5987 63.2756C4.49266 62.3055 4.80445 61.3361 5.45616 60.6097C6.10786 59.8832 7.03789 59.4685 8.01379 59.4691H22.8918C24.156 59.4691 25.1808 58.4442 25.1808 57.1801C25.1808 55.9159 24.156 54.8911 22.8918 54.8911H12.5916C11.6159 54.8934 10.6852 54.4804 10.0322 53.7553C9.37925 53.0303 9.06561 52.0616 9.1697 51.0914C9.4626 49.2671 11.0729 47.9498 12.919 48.0241H27.4697C28.7338 48.0241 29.7586 46.9993 29.7586 45.7352C29.7586 44.471 28.7338 43.4462 27.4697 43.4462H17.1695C16.1937 43.4485 15.2631 43.0355 14.6101 42.3104C13.9571 41.5853 13.6435 40.6167 13.7476 39.6465C14.0395 37.8217 15.6504 36.5038 17.4968 36.5792H51.3936C51.8108 36.5824 52.2192 36.6995 52.5747 36.918L61.8311 42.4619C62.8964 43.1006 64.114 43.4406 65.356 43.4462H86.9819V63.793L83.0174 60.5472C80.0425 58.2765 75.858 58.5065 73.1499 61.0897C71.139 63.0398 70.4401 65.9783 71.3576 68.625H63.6828C61.8814 68.6326 60.1551 69.3478 58.8761 70.6164L37.335 91.9818L37.2892 92.0276L36.337 92.9706C35.2205 94.0622 33.4328 94.05 32.3314 92.9432C31.326 91.9338 31.228 90.3344 32.1025 89.2098L38.397 81.5189C38.9568 80.8343 39.0721 79.8886 38.6934 79.0896C38.3147 78.2905 37.5096 77.7811 36.6254 77.7809H10.63C8.78692 77.8529 7.18033 76.5372 6.88763 74.716C6.78298 73.7466 7.09541 72.7784 7.74696 72.0531C8.3985 71.3277 9.32771 70.9136 10.3027 70.914H22.8918C24.156 70.914 25.1808 69.8892 25.1808 68.625C25.1808 67.3608 24.156 66.336 22.8918 66.336H8.3411C6.49983 66.4073 4.89441 65.0945 4.5987 63.2756ZM96.1376 106.753L75.2396 127.477C74.8193 127.897 74.25 128.134 73.6557 128.136H62.5864L41.8648 107.247C41.4435 106.826 41.2057 106.256 41.2033 105.661V94.5821L62.0943 73.8645C62.5154 73.4424 63.0867 73.2045 63.6828 73.203H74.7613L95.4829 94.0922C95.901 94.5154 96.1361 95.0859 96.1376 95.6808V106.753ZM42.6956 162.455C41.7319 162.559 40.7697 162.246 40.0519 161.594C39.3308 160.94 38.9179 160.013 38.9143 159.04V159.006V146.45C38.9143 145.186 37.8895 144.162 36.6254 144.162C35.3613 144.162 34.3365 145.186 34.3365 146.45V159.04V159.072V161.006C34.3993 162.856 33.0724 164.462 31.2441 164.749C30.2824 164.853 29.3221 164.54 28.6073 163.888C27.8845 163.233 27.4714 162.304 27.4697 161.329V156.751V156.705V146.45C27.4697 145.186 26.4449 144.162 25.1808 144.162C23.9166 144.162 22.8918 145.186 22.8918 146.45V156.751V156.778C22.8857 157.749 22.4691 158.672 21.7451 159.318C21.021 159.964 20.0573 160.274 19.0922 160.171C17.2684 159.879 15.9508 158.269 16.025 156.424V152.173V152.139V141.873C16.025 140.608 15.0003 139.584 13.7361 139.584C12.472 139.584 11.4472 140.608 11.4472 141.873V152.173V152.194C11.4429 153.165 11.0275 154.089 10.3037 154.737C9.57999 155.385 8.61571 155.696 7.64985 155.593C5.82653 155.301 4.50856 153.693 4.58039 151.848V117.95C4.58392 117.538 4.6918 117.133 4.89398 116.774L10.4629 107.513C11.1003 106.448 11.4402 105.231 11.4472 103.99V82.3589H31.7912L28.5432 86.3257C26.4492 88.8727 26.3003 92.5003 28.1784 95.2104C30.0566 97.9205 33.5054 99.0546 36.6254 97.9881V105.661C36.633 107.462 37.3482 109.189 38.6168 110.468L59.9633 131.984C59.9885 132.012 60.0137 132.037 60.0412 132.062L60.9727 133C61.7748 133.817 62.008 135.035 61.5644 136.09C61.1207 137.145 60.0869 137.83 58.9425 137.828C58.3196 137.831 57.7142 137.622 57.2258 137.235L49.5373 130.943C48.8529 130.371 47.8988 130.249 47.0925 130.63C46.2862 131.01 45.7744 131.825 45.7811 132.717V158.713C45.8445 160.56 44.5212 162.165 42.6956 162.455ZM132.742 138.066C132.848 139.036 132.536 140.006 131.885 140.732C131.233 141.458 130.303 141.873 129.327 141.873H114.449C113.185 141.873 112.16 142.897 112.16 144.162C112.16 145.426 113.185 146.45 114.449 146.45H124.749C125.725 146.448 126.656 146.861 127.309 147.586C127.962 148.311 128.275 149.28 128.171 150.25C127.878 152.074 126.268 153.392 124.422 153.317H109.871C108.607 153.317 107.582 154.342 107.582 155.606C107.582 156.871 108.607 157.895 109.871 157.895H120.171C121.147 157.893 122.078 158.306 122.731 159.031C123.384 159.756 123.697 160.725 123.593 161.695C123.301 163.52 121.69 164.838 119.844 164.762H85.9473C85.53 164.759 85.1216 164.642 84.7662 164.424L75.5097 158.88C74.4445 158.241 73.2268 157.901 71.9848 157.895H50.359V137.544L54.3234 140.79C57.2956 143.069 61.4865 142.839 64.191 140.247C66.2024 138.3 66.9039 135.363 65.9901 132.717H73.658C75.4594 132.709 77.1857 131.994 78.4647 130.725L99.999 109.369L100.079 109.291L101.011 108.376C102.127 107.284 103.915 107.296 105.016 108.403C106.022 109.412 106.12 111.012 105.245 112.136L98.9507 119.827C98.3946 120.511 98.2804 121.453 98.657 122.25C99.0336 123.047 99.8342 123.556 100.715 123.561H126.711C128.554 123.489 130.161 124.804 130.453 126.626C130.558 127.595 130.245 128.563 129.594 129.289C128.942 130.014 128.013 130.428 127.038 130.428H114.449C113.185 130.428 112.16 131.452 112.16 132.717C112.16 133.981 113.185 135.006 114.449 135.006H129.007C130.845 134.938 132.447 136.25 132.742 138.066ZM132.76 83.3912C132.757 83.8081 132.641 84.2162 132.424 84.5724L126.878 93.829C126.239 94.8936 125.899 96.1104 125.894 97.3518V118.983H105.543L108.791 115.016C111.148 112.069 110.913 107.821 108.244 105.153C106.244 103.234 103.353 102.568 100.715 103.418V95.6808C100.708 93.8793 99.9927 92.153 98.7241 90.8739L77.3683 69.3254L77.3249 69.2819L76.3795 68.3297C75.8432 67.8 75.5437 67.076 75.5489 66.3222C75.554 65.5684 75.8635 64.8486 76.407 64.3263C77.4302 63.3501 79.0079 63.2535 80.1425 64.0974L87.831 70.3898C88.5148 70.9431 89.4551 71.0556 90.25 70.6793C91.045 70.3031 91.5541 69.5045 91.5597 68.625V42.629C91.4889 40.7854 92.8054 39.1791 94.6269 38.8865C95.5959 38.7826 96.5634 39.0953 97.2882 39.7468C98.013 40.3983 98.4269 41.3271 98.4265 42.3017V54.8911C98.4265 56.1553 99.4513 57.1801 100.715 57.1801C101.98 57.1801 103.004 56.1553 103.004 54.8911V40.34C102.933 38.4961 104.249 36.8892 106.072 36.5975C107.041 36.4936 108.008 36.8063 108.733 37.4578C109.458 38.1093 109.872 39.0381 109.871 40.0127V54.8911C109.871 56.1553 110.896 57.1801 112.16 57.1801C113.424 57.1801 114.449 56.1553 114.449 54.8911V44.5907C114.447 43.6153 114.861 42.6852 115.586 42.0327C116.311 41.3802 117.279 41.0669 118.249 41.1709C120.072 41.4628 121.39 43.0724 121.316 44.918V59.4691C121.316 60.7332 122.341 61.758 123.605 61.758C124.869 61.758 125.894 60.7332 125.894 59.4691V49.1686C125.892 48.1932 126.305 47.2632 127.03 46.6107C127.755 45.9582 128.723 45.6448 129.693 45.7489C131.516 46.0416 132.832 47.6493 132.76 49.4937V83.3912Z" fill="url(#paint0_linear_34_1094)"/>
<defs>
<linearGradient id="paint0_linear_34_1094" x1="32.4324" y1="63.3262" x2="85.876" y2="156.694" gradientUnits="userSpaceOnUse">
<stop stop-color="#A2BDB2"/>
<stop offset="1" stop-color="#667770"/>
</linearGradient>
</defs>
</svg>
