<svg width="193" height="193" viewBox="0 0 193 193" fill="none" xmlns="http://www.w3.org/2000/svg">
<path fill-rule="evenodd" clip-rule="evenodd" d="M136.617 53.4499C138.439 53.4499 140.613 52.5677 141.905 51.3045L152.979 40.4716C154.091 40.904 155.302 41.1445 156.57 41.1445C161.958 41.1445 166.342 36.8503 166.342 31.5717C166.342 26.2935 161.958 21.9997 156.57 21.9997C151.182 21.9997 146.799 26.2939 146.799 31.5717C146.799 33.5537 147.417 35.3974 148.475 36.9266L137.862 47.3087C137.637 47.5202 136.927 47.8088 136.617 47.814H112.956V29.1603H119.612C120.843 33.0675 124.563 35.9151 128.95 35.9151C134.339 35.9151 138.722 31.621 138.722 26.3424C138.722 21.0642 134.338 16.77 128.95 16.77C124.563 16.77 120.843 19.6173 119.612 23.5244H112.956V23.0976C112.956 10.6333 102.597 0.493164 89.8624 0.493164C80.7591 0.493164 72.5929 5.709 68.8664 13.6842C68.2935 13.6443 67.7221 13.6241 67.1553 13.6241C53.9203 13.6241 43.1173 24.0114 42.8104 36.895C41.6676 36.735 40.5118 36.6542 39.3511 36.6542C25.9235 36.6542 14.9997 47.3466 14.9997 60.4891C14.9997 63.374 15.5145 66.1653 16.5327 68.8205C6.50976 74.6668 0.392578 85.1105 0.392578 96.6791C0.392578 102.891 2.19238 108.929 5.59706 114.139C8.40167 118.432 12.1801 122.005 16.6244 124.59C15.5565 127.311 14.9997 130.224 14.9997 133.15C14.9997 138.952 17.1545 144.543 21.0672 148.893C22.1155 150.059 23.9272 150.169 25.1136 149.138C26.2999 148.107 26.4111 146.326 25.3624 145.16C22.3766 141.841 20.7327 137.575 20.7327 133.149C20.7327 130.172 21.4486 127.332 22.8582 124.708C24.5406 121.567 27.1545 118.914 30.461 117.154C31.8534 116.413 32.3705 114.703 31.6164 113.335C30.8627 111.966 29.1225 111.456 27.7309 112.199C24.3067 114.022 21.452 116.579 19.3174 119.606C11.1207 114.759 6.12564 106.188 6.12564 96.6791C6.12564 86.512 11.8541 77.3976 21.1027 72.7844C21.1027 72.7844 26.4543 69.8575 33.5587 69.8575C35.1422 69.8575 36.4253 68.5962 36.4253 67.0396C36.4253 65.4829 35.1422 64.2216 33.5587 64.2216C29.3942 64.2216 25.4079 64.9787 21.7326 66.3565C21.0737 64.4779 20.7335 62.5147 20.7335 60.4895C20.7335 50.4543 29.0854 42.2905 39.3518 42.2905C41.2816 42.2905 43.1907 42.5809 45.026 43.1539C45.9666 43.4473 46.9944 43.2448 47.7469 42.6174C48.4999 41.9899 48.8714 41.0265 48.7304 40.0662C48.6023 39.1915 48.5373 38.3145 48.5373 37.4594C48.5373 27.4245 56.8896 19.2603 67.156 19.2603C68.1643 19.2603 69.1947 19.3452 70.2202 19.5109C79.033 20.944 85.7744 28.4446 85.7744 37.4594C85.7744 39.016 87.0574 40.2773 88.6409 40.2773C90.2244 40.2773 91.5074 39.016 91.5074 37.4594C91.5074 26.9007 84.4538 17.9295 74.7176 14.8087C77.7442 9.51774 83.4964 6.12906 89.8624 6.12906C99.4351 6.12906 107.223 13.7413 107.223 23.0976V23.4106H101.71C100.127 23.4106 98.8435 24.6719 98.8435 26.2285C98.8435 27.7852 100.127 29.0465 101.71 29.0465H107.223V47.8136H84.0388C78.793 47.8136 74.5253 43.6453 74.5253 38.5219C74.5253 36.9653 73.2423 35.704 71.6588 35.704C70.0753 35.704 68.7923 36.9653 68.7923 38.5219C68.7923 46.753 75.6318 53.4495 84.0388 53.4495H107.223V100.887H60.7251C59.1416 100.887 57.8585 102.149 57.8585 103.705C57.8585 105.262 59.1416 106.523 60.7251 106.523H107.223V145.214H98.3653C90.2771 145.214 83.6971 151.657 83.6971 159.576C83.6971 161.133 84.9801 162.394 86.5636 162.394C88.1471 162.394 89.4302 161.133 89.4302 159.576C89.4302 154.765 93.4383 150.85 98.3653 150.85H107.223V170.261C107.223 170.703 107.2 171.141 107.166 171.575H101.71C100.127 171.575 98.8435 172.836 98.8435 174.392C98.8435 175.949 100.127 177.21 101.71 177.21H105.694C102.972 183.11 96.9022 187.229 89.8624 187.229C83.5392 187.229 77.8081 183.875 74.7661 178.635C78.2285 177.523 81.4149 175.655 84.0996 173.109C85.2389 172.028 85.2714 170.244 84.1722 169.124C83.073 168.004 81.2582 167.972 80.1193 169.053C77.3819 171.649 73.96 173.325 70.2649 173.931C69.223 174.102 68.1769 174.189 67.1553 174.189C56.8889 174.189 48.5366 166.025 48.5366 155.99C48.5366 155.775 48.5476 155.553 48.5586 155.331L48.5649 155.203C50.8787 154.277 53.0523 153.01 54.9909 151.419C56.2063 150.422 56.3687 148.645 55.354 147.45C54.3392 146.255 52.5612 146.132 51.3163 147.093C45.5642 151.535 40.0008 151.466 37.7752 151.285C36.1929 151.153 34.8124 152.309 34.6809 153.859C34.5498 155.41 35.7228 156.772 37.3005 156.901C39.1332 157.05 41.0003 156.998 42.8157 156.743C43.2232 169.539 53.9853 179.825 67.1557 179.825C67.7358 179.825 68.321 179.804 68.9081 179.762C72.6544 187.684 80.8042 192.865 89.8624 192.865C102.596 192.865 112.956 182.725 112.956 170.261V164.033H128.152C128.463 164.039 129.173 164.327 129.397 164.538L136.231 171.223C135.307 172.685 134.771 174.407 134.771 176.25C134.771 181.528 139.155 185.822 144.543 185.822C149.931 185.822 154.314 181.528 154.314 176.25C154.314 170.971 149.93 166.677 144.543 166.677C143.126 166.677 141.78 166.976 140.563 167.51L133.441 160.543C132.149 159.28 129.975 158.397 128.153 158.397H112.956V143.334H137.876C139.107 147.241 142.828 150.089 147.215 150.089C152.604 150.089 156.987 145.794 156.987 140.516C156.987 135.237 152.603 130.943 147.215 130.943C142.828 130.943 139.107 133.79 137.876 137.698H112.956V118.821H142.777C144.008 122.729 147.728 125.576 152.116 125.576C157.504 125.576 161.887 121.282 161.887 116.003C161.887 110.725 157.504 106.431 152.116 106.431C147.728 106.431 144.008 109.278 142.777 113.186H112.956V92.675H120.057C121.288 96.5818 125.009 99.4294 129.396 99.4294C134.784 99.4294 139.168 95.1353 139.168 89.8571C139.168 84.5785 134.784 80.2843 129.396 80.2843C125.009 80.2843 121.288 83.1316 120.057 87.0391H112.956V70.7773H144.189C144.5 70.7829 145.211 71.0707 145.434 71.2819L151.322 77.0425C151.882 77.5896 152.613 77.8631 153.344 77.8631C154.08 77.8631 154.816 77.5862 155.376 77.0328C156.493 75.9296 156.488 74.1453 155.366 73.0474L149.478 67.2868C148.186 66.0236 146.012 65.1414 144.19 65.1414H112.956V53.4499H136.617ZM156.57 27.6353C158.797 27.6353 160.608 29.4012 160.608 31.5714C160.608 33.7419 158.797 35.5082 156.57 35.5082C154.343 35.5082 152.532 33.7423 152.532 31.5714C152.532 29.4012 154.343 27.6353 156.57 27.6353ZM128.95 22.4059C131.177 22.4059 132.989 24.1718 132.989 26.3424C132.989 28.513 131.177 30.2792 128.95 30.2792C126.724 30.2792 124.912 28.5133 124.912 26.3424C124.912 24.1718 126.724 22.4059 128.95 22.4059ZM144.543 172.312C146.769 172.312 148.581 174.079 148.581 176.249C148.581 178.42 146.769 180.186 144.543 180.186C142.316 180.186 140.504 178.42 140.504 176.249C140.504 174.079 142.316 172.312 144.543 172.312ZM147.215 136.579C149.442 136.579 151.254 138.345 151.254 140.516C151.254 142.686 149.442 144.453 147.215 144.453C144.989 144.453 143.177 142.687 143.177 140.516C143.177 138.345 144.989 136.579 147.215 136.579ZM152.116 112.067C154.342 112.067 156.154 113.833 156.154 116.003C156.154 118.174 154.342 119.94 152.116 119.94C149.889 119.94 148.077 118.174 148.077 116.003C148.077 113.833 149.889 112.067 152.116 112.067ZM129.396 85.9202C131.623 85.9202 133.434 87.6861 133.434 89.8571C133.434 92.0273 131.623 93.7935 129.396 93.7935C127.169 93.7935 125.358 92.0276 125.358 89.8571C125.358 87.6861 127.169 85.9202 129.396 85.9202ZM173.053 49.8887C167.665 49.8887 163.282 54.1829 163.282 59.4611C163.282 64.7397 167.665 69.0338 173.053 69.0338C178.441 69.0338 182.824 64.7397 182.824 59.4611C182.824 54.1829 178.441 49.8887 173.053 49.8887ZM173.053 63.3983C170.827 63.3983 169.015 61.6324 169.015 59.4615C169.015 57.2909 170.826 55.525 173.053 55.525C175.28 55.525 177.092 57.2909 177.092 59.4615C177.092 61.632 175.28 63.3983 173.053 63.3983ZM35.4289 52.8345C35.4289 51.2778 36.712 50.0165 38.2954 50.0165C47.9897 50.0165 55.8768 57.7373 55.8768 67.2278C55.8768 76.7186 47.9897 84.4398 38.2954 84.4398C36.712 84.4398 35.4289 83.1785 35.4289 81.6219C35.4289 80.0652 36.712 78.8039 38.2954 78.8039C44.8288 78.8039 50.1438 73.611 50.1438 67.2278C50.1438 60.845 44.8288 55.6524 38.2954 55.6524C36.712 55.6524 35.4289 54.3911 35.4289 52.8345ZM74.3806 66.9879C72.7972 66.9879 71.5141 68.2496 71.5141 69.8059C71.5141 77.8637 64.8064 84.419 56.5615 84.419C54.978 84.419 53.695 85.6803 53.695 87.237C53.695 88.7936 54.978 90.0549 56.5615 90.0549C67.9676 90.0549 77.2472 80.9714 77.2472 69.8059C77.2472 68.2496 75.9641 66.9879 74.3806 66.9879ZM44.2427 100.887H36.0204C30.775 100.887 26.5073 96.7186 26.5073 91.5948C26.5073 90.0382 25.2242 88.7769 23.6408 88.7769C22.0573 88.7769 20.7742 90.0382 20.7742 91.5948C20.7742 99.8263 27.6138 106.523 36.0207 106.523H44.2427C45.8262 106.523 47.1093 105.262 47.1093 103.705C47.1093 102.149 45.8262 100.887 44.2427 100.887ZM71.1781 121.743H46.6895C38.6013 121.743 32.0209 128.185 32.0209 136.105C32.0209 137.662 33.304 138.923 34.8874 138.923C36.4709 138.923 37.754 137.662 37.754 136.105C37.754 131.293 41.7621 127.379 46.6895 127.379H71.1781C72.7616 127.379 74.0446 126.117 74.0446 124.561C74.0446 123.004 72.7616 121.743 71.1781 121.743ZM82.6466 121.743H94.5366C96.1197 121.743 97.4032 123.004 97.4032 124.561C97.4032 126.117 96.1201 127.379 94.5366 127.379H82.6466C81.0632 127.379 79.7801 126.117 79.7801 124.561C79.7801 123.004 81.0632 121.743 82.6466 121.743ZM56.5888 137.109C56.5888 135.552 57.8718 134.291 59.4553 134.291C67.3501 134.291 73.773 140.58 73.773 148.309C73.773 156.04 67.3501 162.329 59.4553 162.329C57.8718 162.329 56.5888 161.068 56.5888 159.511C56.5888 157.955 57.8718 156.693 59.4553 156.693C64.1889 156.693 68.04 152.933 68.04 148.309C68.04 143.687 64.1889 139.927 59.4553 139.927C57.8718 139.927 56.5888 138.665 56.5888 137.109ZM88.792 67.9333C87.2086 67.9333 85.9255 69.1946 85.9255 70.7513C85.9255 72.3079 87.2086 73.5692 88.792 73.5692C92.5946 73.5692 95.6885 76.5889 95.6885 80.3011C95.6885 84.0137 92.5946 87.0337 88.792 87.0337C87.2086 87.0337 85.9255 88.2951 85.9255 89.8517C85.9255 91.4083 87.2086 92.6696 88.792 92.6696C95.7562 92.6696 101.422 87.1209 101.422 80.3011C101.422 73.4817 95.7562 67.9333 88.792 67.9333ZM172.86 131.583C172.86 126.304 177.243 122.01 182.632 122.01C188.02 122.01 192.403 126.304 192.403 131.583C192.403 136.861 188.02 141.155 182.632 141.155C177.244 141.155 172.86 136.861 172.86 131.583ZM178.593 131.583C178.593 133.753 180.405 135.519 182.632 135.519C184.859 135.519 186.67 133.753 186.67 131.583C186.67 129.412 184.859 127.646 182.632 127.646C180.405 127.646 178.593 129.412 178.593 131.583ZM176.617 88.237C174.964 88.2374 173.406 88.6431 172.039 89.3566L166.451 83.8906C165.328 82.7927 163.514 82.7976 162.397 83.9003C161.281 85.0035 161.285 86.7874 162.407 87.8853L167.981 93.3375C167.258 94.6735 166.846 96.1949 166.846 97.8094C166.846 103.088 171.229 107.382 176.617 107.382C182.005 107.382 186.388 103.088 186.388 97.8094C186.388 92.5312 182.005 88.237 176.617 88.237ZM176.617 101.747C174.391 101.747 172.579 99.9807 172.579 97.8097C172.579 95.6395 174.391 93.8732 176.617 93.8732C178.844 93.8732 180.656 95.6392 180.656 97.8097C180.656 99.9803 178.844 101.747 176.617 101.747ZM160.386 160.997C160.386 155.719 164.769 151.425 170.157 151.425C175.546 151.425 179.929 155.719 179.929 160.997C179.929 166.276 175.546 170.57 170.157 170.57C164.769 170.57 160.386 166.276 160.386 160.997ZM166.119 160.997C166.119 163.168 167.93 164.934 170.157 164.934C172.384 164.934 174.196 163.168 174.196 160.997C174.196 158.826 172.384 157.06 170.157 157.06C167.93 157.06 166.119 158.827 166.119 160.997ZM55.8656 35.7682C56.3097 29.0592 62.2469 23.9557 69.0945 24.3878C70.6745 24.4881 71.8727 25.828 71.7707 27.3812C71.669 28.9345 70.3072 30.1161 68.726 30.012C65.0282 29.7829 61.8253 32.5245 61.5868 36.1345C61.4878 37.625 60.2273 38.7695 58.7291 38.7695C58.6664 38.7695 58.6033 38.7676 58.5399 38.7635C56.9602 38.662 55.7628 37.3214 55.8656 35.7682Z" fill="white" fill-opacity="0.7"/>
<path fill-rule="evenodd" clip-rule="evenodd" d="M136.617 53.4499C138.439 53.4499 140.613 52.5677 141.905 51.3045L152.979 40.4716C154.091 40.904 155.302 41.1445 156.57 41.1445C161.958 41.1445 166.342 36.8503 166.342 31.5717C166.342 26.2935 161.958 21.9997 156.57 21.9997C151.182 21.9997 146.799 26.2939 146.799 31.5717C146.799 33.5537 147.417 35.3974 148.475 36.9266L137.862 47.3087C137.637 47.5202 136.927 47.8088 136.617 47.814H112.956V29.1603H119.612C120.843 33.0675 124.563 35.9151 128.95 35.9151C134.339 35.9151 138.722 31.621 138.722 26.3424C138.722 21.0642 134.338 16.77 128.95 16.77C124.563 16.77 120.843 19.6173 119.612 23.5244H112.956V23.0976C112.956 10.6333 102.597 0.493164 89.8624 0.493164C80.7591 0.493164 72.5929 5.709 68.8664 13.6842C68.2935 13.6443 67.7221 13.6241 67.1553 13.6241C53.9203 13.6241 43.1173 24.0114 42.8104 36.895C41.6676 36.735 40.5118 36.6542 39.3511 36.6542C25.9235 36.6542 14.9997 47.3466 14.9997 60.4891C14.9997 63.374 15.5145 66.1653 16.5327 68.8205C6.50976 74.6668 0.392578 85.1105 0.392578 96.6791C0.392578 102.891 2.19238 108.929 5.59706 114.139C8.40167 118.432 12.1801 122.005 16.6244 124.59C15.5565 127.311 14.9997 130.224 14.9997 133.15C14.9997 138.952 17.1545 144.543 21.0672 148.893C22.1155 150.059 23.9272 150.169 25.1136 149.138C26.2999 148.107 26.4111 146.326 25.3624 145.16C22.3766 141.841 20.7327 137.575 20.7327 133.149C20.7327 130.172 21.4486 127.332 22.8582 124.708C24.5406 121.567 27.1545 118.914 30.461 117.154C31.8534 116.413 32.3705 114.703 31.6164 113.335C30.8627 111.966 29.1225 111.456 27.7309 112.199C24.3067 114.022 21.452 116.579 19.3174 119.606C11.1207 114.759 6.12564 106.188 6.12564 96.6791C6.12564 86.512 11.8541 77.3976 21.1027 72.7844C21.1027 72.7844 26.4543 69.8575 33.5587 69.8575C35.1422 69.8575 36.4253 68.5962 36.4253 67.0396C36.4253 65.4829 35.1422 64.2216 33.5587 64.2216C29.3942 64.2216 25.4079 64.9787 21.7326 66.3565C21.0737 64.4779 20.7335 62.5147 20.7335 60.4895C20.7335 50.4543 29.0854 42.2905 39.3518 42.2905C41.2816 42.2905 43.1907 42.5809 45.026 43.1539C45.9666 43.4473 46.9944 43.2448 47.7469 42.6174C48.4999 41.9899 48.8714 41.0265 48.7304 40.0662C48.6023 39.1915 48.5373 38.3145 48.5373 37.4594C48.5373 27.4245 56.8896 19.2603 67.156 19.2603C68.1643 19.2603 69.1947 19.3452 70.2202 19.5109C79.033 20.944 85.7744 28.4446 85.7744 37.4594C85.7744 39.016 87.0574 40.2773 88.6409 40.2773C90.2244 40.2773 91.5074 39.016 91.5074 37.4594C91.5074 26.9007 84.4538 17.9295 74.7176 14.8087C77.7442 9.51774 83.4964 6.12906 89.8624 6.12906C99.4351 6.12906 107.223 13.7413 107.223 23.0976V23.4106H101.71C100.127 23.4106 98.8435 24.6719 98.8435 26.2285C98.8435 27.7852 100.127 29.0465 101.71 29.0465H107.223V47.8136H84.0388C78.793 47.8136 74.5253 43.6453 74.5253 38.5219C74.5253 36.9653 73.2423 35.704 71.6588 35.704C70.0753 35.704 68.7923 36.9653 68.7923 38.5219C68.7923 46.753 75.6318 53.4495 84.0388 53.4495H107.223V100.887H60.7251C59.1416 100.887 57.8585 102.149 57.8585 103.705C57.8585 105.262 59.1416 106.523 60.7251 106.523H107.223V145.214H98.3653C90.2771 145.214 83.6971 151.657 83.6971 159.576C83.6971 161.133 84.9801 162.394 86.5636 162.394C88.1471 162.394 89.4302 161.133 89.4302 159.576C89.4302 154.765 93.4383 150.85 98.3653 150.85H107.223V170.261C107.223 170.703 107.2 171.141 107.166 171.575H101.71C100.127 171.575 98.8435 172.836 98.8435 174.392C98.8435 175.949 100.127 177.21 101.71 177.21H105.694C102.972 183.11 96.9022 187.229 89.8624 187.229C83.5392 187.229 77.8081 183.875 74.7661 178.635C78.2285 177.523 81.4149 175.655 84.0996 173.109C85.2389 172.028 85.2714 170.244 84.1722 169.124C83.073 168.004 81.2582 167.972 80.1193 169.053C77.3819 171.649 73.96 173.325 70.2649 173.931C69.223 174.102 68.1769 174.189 67.1553 174.189C56.8889 174.189 48.5366 166.025 48.5366 155.99C48.5366 155.775 48.5476 155.553 48.5586 155.331L48.5649 155.203C50.8787 154.277 53.0523 153.01 54.9909 151.419C56.2063 150.422 56.3687 148.645 55.354 147.45C54.3392 146.255 52.5612 146.132 51.3163 147.093C45.5642 151.535 40.0008 151.466 37.7752 151.285C36.1929 151.153 34.8124 152.309 34.6809 153.859C34.5498 155.41 35.7228 156.772 37.3005 156.901C39.1332 157.05 41.0003 156.998 42.8157 156.743C43.2232 169.539 53.9853 179.825 67.1557 179.825C67.7358 179.825 68.321 179.804 68.9081 179.762C72.6544 187.684 80.8042 192.865 89.8624 192.865C102.596 192.865 112.956 182.725 112.956 170.261V164.033H128.152C128.463 164.039 129.173 164.327 129.397 164.538L136.231 171.223C135.307 172.685 134.771 174.407 134.771 176.25C134.771 181.528 139.155 185.822 144.543 185.822C149.931 185.822 154.314 181.528 154.314 176.25C154.314 170.971 149.93 166.677 144.543 166.677C143.126 166.677 141.78 166.976 140.563 167.51L133.441 160.543C132.149 159.28 129.975 158.397 128.153 158.397H112.956V143.334H137.876C139.107 147.241 142.828 150.089 147.215 150.089C152.604 150.089 156.987 145.794 156.987 140.516C156.987 135.237 152.603 130.943 147.215 130.943C142.828 130.943 139.107 133.79 137.876 137.698H112.956V118.821H142.777C144.008 122.729 147.728 125.576 152.116 125.576C157.504 125.576 161.887 121.282 161.887 116.003C161.887 110.725 157.504 106.431 152.116 106.431C147.728 106.431 144.008 109.278 142.777 113.186H112.956V92.675H120.057C121.288 96.5818 125.009 99.4294 129.396 99.4294C134.784 99.4294 139.168 95.1353 139.168 89.8571C139.168 84.5785 134.784 80.2843 129.396 80.2843C125.009 80.2843 121.288 83.1316 120.057 87.0391H112.956V70.7773H144.189C144.5 70.7829 145.211 71.0707 145.434 71.2819L151.322 77.0425C151.882 77.5896 152.613 77.8631 153.344 77.8631C154.08 77.8631 154.816 77.5862 155.376 77.0328C156.493 75.9296 156.488 74.1453 155.366 73.0474L149.478 67.2868C148.186 66.0236 146.012 65.1414 144.19 65.1414H112.956V53.4499H136.617ZM156.57 27.6353C158.797 27.6353 160.608 29.4012 160.608 31.5714C160.608 33.7419 158.797 35.5082 156.57 35.5082C154.343 35.5082 152.532 33.7423 152.532 31.5714C152.532 29.4012 154.343 27.6353 156.57 27.6353ZM128.95 22.4059C131.177 22.4059 132.989 24.1718 132.989 26.3424C132.989 28.513 131.177 30.2792 128.95 30.2792C126.724 30.2792 124.912 28.5133 124.912 26.3424C124.912 24.1718 126.724 22.4059 128.95 22.4059ZM144.543 172.312C146.769 172.312 148.581 174.079 148.581 176.249C148.581 178.42 146.769 180.186 144.543 180.186C142.316 180.186 140.504 178.42 140.504 176.249C140.504 174.079 142.316 172.312 144.543 172.312ZM147.215 136.579C149.442 136.579 151.254 138.345 151.254 140.516C151.254 142.686 149.442 144.453 147.215 144.453C144.989 144.453 143.177 142.687 143.177 140.516C143.177 138.345 144.989 136.579 147.215 136.579ZM152.116 112.067C154.342 112.067 156.154 113.833 156.154 116.003C156.154 118.174 154.342 119.94 152.116 119.94C149.889 119.94 148.077 118.174 148.077 116.003C148.077 113.833 149.889 112.067 152.116 112.067ZM129.396 85.9202C131.623 85.9202 133.434 87.6861 133.434 89.8571C133.434 92.0273 131.623 93.7935 129.396 93.7935C127.169 93.7935 125.358 92.0276 125.358 89.8571C125.358 87.6861 127.169 85.9202 129.396 85.9202ZM173.053 49.8887C167.665 49.8887 163.282 54.1829 163.282 59.4611C163.282 64.7397 167.665 69.0338 173.053 69.0338C178.441 69.0338 182.824 64.7397 182.824 59.4611C182.824 54.1829 178.441 49.8887 173.053 49.8887ZM173.053 63.3983C170.827 63.3983 169.015 61.6324 169.015 59.4615C169.015 57.2909 170.826 55.525 173.053 55.525C175.28 55.525 177.092 57.2909 177.092 59.4615C177.092 61.632 175.28 63.3983 173.053 63.3983ZM35.4289 52.8345C35.4289 51.2778 36.712 50.0165 38.2954 50.0165C47.9897 50.0165 55.8768 57.7373 55.8768 67.2278C55.8768 76.7186 47.9897 84.4398 38.2954 84.4398C36.712 84.4398 35.4289 83.1785 35.4289 81.6219C35.4289 80.0652 36.712 78.8039 38.2954 78.8039C44.8288 78.8039 50.1438 73.611 50.1438 67.2278C50.1438 60.845 44.8288 55.6524 38.2954 55.6524C36.712 55.6524 35.4289 54.3911 35.4289 52.8345ZM74.3806 66.9879C72.7972 66.9879 71.5141 68.2496 71.5141 69.8059C71.5141 77.8637 64.8064 84.419 56.5615 84.419C54.978 84.419 53.695 85.6803 53.695 87.237C53.695 88.7936 54.978 90.0549 56.5615 90.0549C67.9676 90.0549 77.2472 80.9714 77.2472 69.8059C77.2472 68.2496 75.9641 66.9879 74.3806 66.9879ZM44.2427 100.887H36.0204C30.775 100.887 26.5073 96.7186 26.5073 91.5948C26.5073 90.0382 25.2242 88.7769 23.6408 88.7769C22.0573 88.7769 20.7742 90.0382 20.7742 91.5948C20.7742 99.8263 27.6138 106.523 36.0207 106.523H44.2427C45.8262 106.523 47.1093 105.262 47.1093 103.705C47.1093 102.149 45.8262 100.887 44.2427 100.887ZM71.1781 121.743H46.6895C38.6013 121.743 32.0209 128.185 32.0209 136.105C32.0209 137.662 33.304 138.923 34.8874 138.923C36.4709 138.923 37.754 137.662 37.754 136.105C37.754 131.293 41.7621 127.379 46.6895 127.379H71.1781C72.7616 127.379 74.0446 126.117 74.0446 124.561C74.0446 123.004 72.7616 121.743 71.1781 121.743ZM82.6466 121.743H94.5366C96.1197 121.743 97.4032 123.004 97.4032 124.561C97.4032 126.117 96.1201 127.379 94.5366 127.379H82.6466C81.0632 127.379 79.7801 126.117 79.7801 124.561C79.7801 123.004 81.0632 121.743 82.6466 121.743ZM56.5888 137.109C56.5888 135.552 57.8718 134.291 59.4553 134.291C67.3501 134.291 73.773 140.58 73.773 148.309C73.773 156.04 67.3501 162.329 59.4553 162.329C57.8718 162.329 56.5888 161.068 56.5888 159.511C56.5888 157.955 57.8718 156.693 59.4553 156.693C64.1889 156.693 68.04 152.933 68.04 148.309C68.04 143.687 64.1889 139.927 59.4553 139.927C57.8718 139.927 56.5888 138.665 56.5888 137.109ZM88.792 67.9333C87.2086 67.9333 85.9255 69.1946 85.9255 70.7513C85.9255 72.3079 87.2086 73.5692 88.792 73.5692C92.5946 73.5692 95.6885 76.5889 95.6885 80.3011C95.6885 84.0137 92.5946 87.0337 88.792 87.0337C87.2086 87.0337 85.9255 88.2951 85.9255 89.8517C85.9255 91.4083 87.2086 92.6696 88.792 92.6696C95.7562 92.6696 101.422 87.1209 101.422 80.3011C101.422 73.4817 95.7562 67.9333 88.792 67.9333ZM172.86 131.583C172.86 126.304 177.243 122.01 182.632 122.01C188.02 122.01 192.403 126.304 192.403 131.583C192.403 136.861 188.02 141.155 182.632 141.155C177.244 141.155 172.86 136.861 172.86 131.583ZM178.593 131.583C178.593 133.753 180.405 135.519 182.632 135.519C184.859 135.519 186.67 133.753 186.67 131.583C186.67 129.412 184.859 127.646 182.632 127.646C180.405 127.646 178.593 129.412 178.593 131.583ZM176.617 88.237C174.964 88.2374 173.406 88.6431 172.039 89.3566L166.451 83.8906C165.328 82.7927 163.514 82.7976 162.397 83.9003C161.281 85.0035 161.285 86.7874 162.407 87.8853L167.981 93.3375C167.258 94.6735 166.846 96.1949 166.846 97.8094C166.846 103.088 171.229 107.382 176.617 107.382C182.005 107.382 186.388 103.088 186.388 97.8094C186.388 92.5312 182.005 88.237 176.617 88.237ZM176.617 101.747C174.391 101.747 172.579 99.9807 172.579 97.8097C172.579 95.6395 174.391 93.8732 176.617 93.8732C178.844 93.8732 180.656 95.6392 180.656 97.8097C180.656 99.9803 178.844 101.747 176.617 101.747ZM160.386 160.997C160.386 155.719 164.769 151.425 170.157 151.425C175.546 151.425 179.929 155.719 179.929 160.997C179.929 166.276 175.546 170.57 170.157 170.57C164.769 170.57 160.386 166.276 160.386 160.997ZM166.119 160.997C166.119 163.168 167.93 164.934 170.157 164.934C172.384 164.934 174.196 163.168 174.196 160.997C174.196 158.826 172.384 157.06 170.157 157.06C167.93 157.06 166.119 158.827 166.119 160.997ZM55.8656 35.7682C56.3097 29.0592 62.2469 23.9557 69.0945 24.3878C70.6745 24.4881 71.8727 25.828 71.7707 27.3812C71.669 28.9345 70.3072 30.1161 68.726 30.012C65.0282 29.7829 61.8253 32.5245 61.5868 36.1345C61.4878 37.625 60.2273 38.7695 58.7291 38.7695C58.6664 38.7695 58.6033 38.7676 58.5399 38.7635C56.9602 38.662 55.7628 37.3214 55.8656 35.7682Z" fill="url(#paint0_linear_6_4171)"/>
<defs>
<linearGradient id="paint0_linear_6_4171" x1="45.5989" y1="44.3716" x2="120.493" y2="175.09" gradientUnits="userSpaceOnUse">
<stop stop-color="#A2BDB2"/>
<stop offset="1" stop-color="#667770"/>
</linearGradient>
</defs>
</svg>
