<svg width="220" height="69" viewBox="0 0 220 69" fill="none" xmlns="http://www.w3.org/2000/svg">
<path d="M34.596 0.870425L58.738 14.7029C60.7567 15.8596 62.0003 17.9973 62.0003 20.3106V47.9755C62.0003 50.2888 60.7567 52.4264 58.738 53.5832L34.596 67.4156C32.5773 68.5723 30.0901 68.5723 28.0714 67.4156L3.92931 53.5832C1.91057 52.4264 0.666992 50.2888 0.666992 47.9755V20.3106C0.666992 17.9973 1.91057 15.8596 3.92931 14.7029L28.0714 0.870425C30.0901 -0.286236 32.5773 -0.286236 34.596 0.870425Z" fill="url(#paint0_linear_6_4919)"/>
<path d="M8.77148 25.3181C8.77148 23.3188 10.1926 20.8877 11.9459 19.888L37.9361 5.06858C39.7244 4.04893 41.174 4.87551 41.174 6.91479V36.0513C41.174 38.0505 39.7528 40.4817 37.9996 41.4813L12.0729 56.2647C10.2495 57.3043 8.77148 56.4615 8.77148 54.3823V25.3181Z" fill="url(#paint1_linear_6_4919)"/>
<path d="M19.1826 31.0775C19.1826 29.0783 20.6038 26.6472 22.357 25.6475L48.2837 10.8642C50.1071 9.82462 51.5851 10.6674 51.5851 12.7466V42.3175C51.5851 44.0369 50.3629 46.1277 48.8551 46.9874L22.4205 62.0604C20.6322 63.0799 19.1826 62.2534 19.1826 60.2142V31.0775Z" fill="url(#paint2_linear_6_4919)"/>
<path d="M31.9121 37.0994C31.9121 35.4109 33.1045 33.3577 34.5737 32.5168L61.0508 17.3613L61.2693 17.7172C61.6556 18.3465 61.8959 19.1369 61.9769 20.0457L62.0002 20.3054V48.7898C62.0002 50.4759 60.8127 52.5253 59.3457 53.3685C48.5984 59.5462 35.7502 66.9391 35.5656 67.0452C35.5593 67.0489 35.5605 67.0483 35.5542 67.0519L34.9947 67.3785C33.9765 67.9725 32.9709 68.2822 32.0602 68.2822H31.9121V37.0994Z" fill="url(#paint3_linear_6_4919)"/>
<path d="M92.323 37.3033V32.1229H105.943V44.3712C104.62 45.6296 102.698 46.7412 100.179 47.7059C97.6743 48.6567 95.1339 49.1321 92.5579 49.1321C89.2845 49.1321 86.4309 48.461 83.9972 47.1187C81.5635 45.7624 79.7347 43.8329 78.5107 41.3301C77.2868 38.8133 76.6748 36.0799 76.6748 33.1296C76.6748 29.9278 77.3579 27.0824 78.7242 24.5936C80.0905 22.1048 82.0901 20.1962 84.7231 18.8679C86.7298 17.8473 89.2275 17.3369 92.2163 17.3369C96.1017 17.3369 99.1331 18.1409 101.311 19.7488C103.502 21.3428 104.911 23.5519 105.538 26.3763L99.2612 27.5298C98.82 26.0198 97.9874 24.8313 96.7634 23.9644C95.5537 23.0835 94.038 22.6431 92.2163 22.6431C89.4553 22.6431 87.2564 23.503 85.6197 25.2228C83.9972 26.9426 83.186 29.4943 83.186 32.878C83.186 36.5273 84.0115 39.2678 85.6624 41.0994C87.3133 42.9171 89.4766 43.8259 92.1522 43.8259C93.4758 43.8259 94.7994 43.5742 96.123 43.0709C97.4608 42.5536 98.6065 41.9313 99.5601 41.2043V37.3033H92.323Z" fill="white"/>
<path d="M123.754 41.5189L129.731 42.5047C128.963 44.6579 127.746 46.3008 126.081 47.4333C124.43 48.5519 122.359 49.1112 119.868 49.1112C115.926 49.1112 113.008 47.8458 111.116 45.315C109.621 43.2876 108.874 40.7289 108.874 37.6389C108.874 33.9476 109.856 31.0603 111.82 28.977C113.784 26.8797 116.268 25.8311 119.271 25.8311C122.644 25.8311 125.305 26.9286 127.255 29.1238C129.205 31.305 130.137 34.6537 130.051 39.1699H115.022C115.065 40.9177 115.549 42.2809 116.474 43.2597C117.399 44.2244 118.552 44.7068 119.932 44.7068C120.872 44.7068 121.662 44.4551 122.302 43.9518C122.942 43.4484 123.426 42.6375 123.754 41.5189ZM124.095 35.5626C124.053 33.8568 123.604 32.5634 122.75 31.6825C121.896 30.7877 120.857 30.3403 119.634 30.3403C118.324 30.3403 117.243 30.8087 116.389 31.7455C115.535 32.6823 115.115 33.9546 115.129 35.5626H124.095Z" fill="white"/>
<path d="M153.624 48.6078H147.625V37.2404C147.625 34.8355 147.497 33.2835 147.241 32.5844C146.985 31.8713 146.565 31.319 145.981 30.9275C145.412 30.536 144.722 30.3403 143.911 30.3403C142.872 30.3403 141.939 30.6199 141.114 31.1792C140.289 31.7385 139.719 32.4795 139.406 33.4023C139.107 34.3252 138.958 36.031 138.958 38.5198V48.6078H132.959V26.3344H138.531V29.6062C140.509 27.0894 143 25.8311 146.003 25.8311C147.326 25.8311 148.536 26.0687 149.632 26.5441C150.728 27.0055 151.553 27.5998 152.108 28.3269C152.678 29.0539 153.069 29.8789 153.282 30.8017C153.51 31.7245 153.624 33.0458 153.624 34.7656V48.6078Z" fill="white"/>
<path d="M171.397 41.5189L177.375 42.5047C176.606 44.6579 175.389 46.3008 173.724 47.4333C172.073 48.5519 170.003 49.1112 167.512 49.1112C163.57 49.1112 160.652 47.8458 158.759 45.315C157.265 43.2876 156.518 40.7289 156.518 37.6389C156.518 33.9476 157.5 31.0603 159.464 28.977C161.428 26.8797 163.911 25.8311 166.914 25.8311C170.287 25.8311 172.949 26.9286 174.898 29.1238C176.848 31.305 177.78 34.6537 177.695 39.1699H162.666C162.709 40.9177 163.192 42.2809 164.118 43.2597C165.043 44.2244 166.195 44.7068 167.576 44.7068C168.515 44.7068 169.305 44.4551 169.946 43.9518C170.586 43.4484 171.07 42.6375 171.397 41.5189ZM171.739 35.5626C171.696 33.8568 171.248 32.5634 170.394 31.6825C169.54 30.7877 168.501 30.3403 167.277 30.3403C165.968 30.3403 164.886 30.8087 164.032 31.7455C163.178 32.6823 162.758 33.9546 162.773 35.5626H171.739Z" fill="white"/>
<path d="M186.555 48.6078H180.556V26.3344H186.128V29.5013C187.081 28.0053 187.935 27.0195 188.689 26.5441C189.458 26.0687 190.326 25.8311 191.294 25.8311C192.66 25.8311 193.977 26.2016 195.243 26.9426L193.386 32.081C192.375 31.4379 191.436 31.1163 190.568 31.1163C189.728 31.1163 189.017 31.347 188.433 31.8084C187.85 32.2558 187.387 33.0738 187.046 34.2622C186.718 35.4507 186.555 37.9395 186.555 41.7286V48.6078Z" fill="white"/>
<path d="M196.036 26.335H202.419L207.842 42.1487L213.136 26.335H219.348L211.343 47.7694L209.912 51.6495C209.386 52.9498 208.881 53.9425 208.397 54.6276C207.927 55.3128 207.379 55.8651 206.753 56.2845C206.141 56.718 205.38 57.0535 204.469 57.2912C203.572 57.5289 202.554 57.6478 201.416 57.6478C200.263 57.6478 199.132 57.5289 198.022 57.2912L197.488 52.6771C198.427 52.8589 199.274 52.9498 200.028 52.9498C201.423 52.9498 202.455 52.5443 203.124 51.7334C203.793 50.9364 204.305 49.9157 204.661 48.6713L196.036 26.335Z" fill="white"/>
<defs>
<linearGradient id="paint0_linear_6_4919" x1="6.685" y1="46.0859" x2="-10.7707" y2="31.5986" gradientUnits="userSpaceOnUse">
<stop stop-color="#667770"/>
<stop offset="1" stop-color="#92ACA1"/>
</linearGradient>
<linearGradient id="paint1_linear_6_4919" x1="16.4002" y1="16.5104" x2="37.6223" y2="30.4477" gradientUnits="userSpaceOnUse">
<stop stop-color="#92ACA1"/>
<stop offset="1" stop-color="#667770"/>
</linearGradient>
<linearGradient id="paint2_linear_6_4919" x1="26.8114" y1="22.2975" x2="48.0335" y2="36.2348" gradientUnits="userSpaceOnUse">
<stop stop-color="#92ACA1"/>
<stop offset="1" stop-color="#667770"/>
</linearGradient>
<linearGradient id="paint3_linear_6_4919" x1="38.9959" y1="28.9759" x2="61.9634" y2="52.7071" gradientUnits="userSpaceOnUse">
<stop stop-color="#A2BDB2"/>
<stop offset="1" stop-color="#667770"/>
</linearGradient>
</defs>
</svg>
